<svg aria-hidden="true" style="position: absolute; width: 0; height: 0; overflow: hidden;" version="1.1" xmlns="http://www.w3.org/2000/svg" xmlns:xlink="http://www.w3.org/1999/xlink">
<defs>
<symbol id="icon-facebook" viewBox="0 0 32 32">
<path fill="#fff" style="fill: var(--color1, #fff)" d="M16.001 0c-8.838 0-16.001 7.163-16.001 16.001 0 8.836 7.163 15.999 16.001 15.999 8.836 0 15.999-7.163 15.999-15.999 0-8.838-7.163-16.001-15.999-16.001zM22.104 8.147l-2.212 0.002c-1.736 0-2.072 0.825-2.072 2.035v2.668h4.138l-0.002 4.18h-4.137v10.723h-4.316v-10.724h-3.608v-4.178h3.608v-3.082c0-3.576 2.185-5.524 5.376-5.524l3.226 0.005v3.897h-0.002z"></path>
</symbol>
<symbol id="icon-g" viewBox="0 0 32 32">
<path fill="#fff" style="fill: var(--color1, #fff)" d="M16.607 11.023c0-2.219-1.322-5.668-3.872-5.668-0.801 0-1.659 0.401-2.153 1.016-0.523 0.649-0.674 1.477-0.674 2.281 0 2.062 1.197 5.479 3.843 5.479 0.767 0 1.594-0.367 2.089-0.86 0.707-0.712 0.767-1.695 0.767-2.249z"></path>
<path fill="#fff" style="fill: var(--color1, #fff)" d="M14.947 19.123c-0.246-0.030-0.399-0.030-0.706-0.030-0.277 0-1.938 0.061-3.227 0.494-0.676 0.246-2.642 0.985-2.642 3.171 0 2.189 2.121 3.76 5.409 3.76 2.951 0 4.519-1.419 4.519-3.326 0-1.575-1.015-2.404-3.352-4.068z"></path>
<path fill="#fff" style="fill: var(--color1, #fff)" d="M16.001 0c-8.838 0-16.001 7.163-16.001 16.001 0 8.836 7.163 15.999 16.001 15.999 8.836 0 15.999-7.163 15.999-15.999 0-8.838-7.163-16.001-15.999-16.001zM12.273 27.809c-4.458 0-6.608-2.124-6.608-4.405 0-1.108 0.553-2.678 2.366-3.757 1.905-1.17 4.489-1.323 5.871-1.42-0.432-0.553-0.921-1.138-0.921-2.092 0-0.523 0.153-0.832 0.305-1.201-0.339 0.030-0.675 0.061-0.983 0.061-3.256 0-5.1-2.435-5.1-4.837 0-1.415 0.644-2.986 1.966-4.126 1.754-1.448 4.148-1.841 5.809-1.841h6.055l-1.998 1.257h-1.904c0.707 0.585 2.18 1.816 2.18 4.158 0 2.278-1.29 3.358-2.58 4.375-0.401 0.4-0.862 0.829-0.862 1.509 0 0.676 0.46 1.045 0.798 1.325l1.108 0.86c1.352 1.14 2.582 2.187 2.582 4.314 0 2.895-2.799 5.82-8.084 5.82zM25.536 15.624v3.099h-1.52v-3.099h-3.076v-1.538h3.076v-3.079h1.52v3.079h3.092v1.538h-3.092z"></path>
</symbol>
<symbol id="icon-instagram" viewBox="0 0 33 32">
<path fill="#fff" style="fill: var(--color1, #fff)" d="M21.334 15.95c0 2.533-2.178 4.587-4.866 4.587s-4.868-2.054-4.868-4.587c0-2.535 2.18-4.589 4.868-4.589s4.866 2.054 4.866 4.589z"></path>
<path fill="#fff" style="fill: var(--color1, #fff)" d="M24 16.206c0 3.922-3.373 7.102-7.533 7.102-4.161 0-7.534-3.18-7.534-7.102 0-0.703 0.11-1.383 0.312-2.024h-2.226v9.962c0 0.515 0.434 0.937 0.963 0.937h16.877c0.529 0 0.963-0.422 0.963-0.937v-9.962h-2.132c0.201 0.641 0.311 1.321 0.311 2.024z"></path>
<path fill="#fff" style="fill: var(--color1, #fff)" d="M21.981 11.495h2.739c0.601 0 1.091-0.478 1.091-1.062v-2.542c0-0.585-0.489-1.062-1.091-1.062h-2.739c-0.601 0-1.091 0.476-1.091 1.062v2.542c0 0.584 0.49 1.062 1.091 1.062z"></path>
<path fill="#fff" style="fill: var(--color1, #fff)" d="M16.445 0c-9.083 0-16.445 7.163-16.445 16.001 0 8.836 7.362 15.999 16.445 15.999 9.081 0 16.443-7.163 16.443-15.999 0-8.838-7.362-16.001-16.443-16.001zM25.451 27.79h-18.013c-1.712 0-3.11-1.231-3.11-3.026v-17.527c0-1.794 1.398-3.026 3.11-3.026h18.013c1.712 0 3.11 1.233 3.11 3.026v17.527c-0 1.795-1.398 3.026-3.11 3.026z"></path>
</symbol>
</defs>
</svg>
